<svg width="46" height="46" viewBox="0 0 46 46" fill="none" xmlns="http://www.w3.org/2000/svg">
<path d="M17.0772 39.6169C16.7131 39.6169 16.3489 39.4828 16.0614 39.1953C15.5056 38.6394 15.5056 37.7194 16.0614 37.1636L28.5581 24.6669C29.4781 23.7469 29.4781 22.2519 28.5581 21.3319L16.0614 8.83526C15.5056 8.27943 15.5056 7.35943 16.0614 6.80359C16.6172 6.24776 17.5372 6.24776 18.0931 6.80359L30.5897 19.3003C31.5672 20.2778 32.1231 21.6003 32.1231 22.9994C32.1231 24.3986 31.5864 25.7211 30.5897 26.6986L18.0931 39.1953C17.8056 39.4636 17.4414 39.6169 17.0772 39.6169Z" fill="white"/>
</svg>
