<svg width="24" height="26" viewBox="0 0 24 26" fill="none" xmlns="http://www.w3.org/2000/svg">
<path d="M12 25.75C6.07 25.75 1.25 20.93 1.25 15C1.25 9.07 6.07 4.25 12 4.25C17.93 4.25 22.75 9.07 22.75 15C22.75 20.93 17.93 25.75 12 25.75ZM12 5.75C6.9 5.75 2.75 9.9 2.75 15C2.75 20.1 6.9 24.25 12 24.25C17.1 24.25 21.25 20.1 21.25 15C21.25 9.9 17.1 5.75 12 5.75Z" fill="black"/>
<path d="M14.5 15.75H8.5C8.09 15.75 7.75 15.41 7.75 15C7.75 14.59 8.09 14.25 8.5 14.25H14.5C14.91 14.25 15.25 14.59 15.25 15C15.25 15.41 14.91 15.75 14.5 15.75Z" fill="black"/>
<path d="M12.4995 18.7495C12.3095 18.7495 12.1195 18.6795 11.9695 18.5295C11.6795 18.2395 11.6795 17.7595 11.9695 17.4695L14.4395 14.9995L11.9695 12.5295C11.6795 12.2395 11.6795 11.7595 11.9695 11.4695C12.2595 11.1795 12.7395 11.1795 13.0295 11.4695L16.0295 14.4695C16.3195 14.7595 16.3195 15.2395 16.0295 15.5295L13.0295 18.5295C12.8795 18.6795 12.6895 18.7495 12.4995 18.7495Z" fill="black"/>
</svg>
