<svg width="1191" height="357" viewBox="0 0 1191 357" fill="none" xmlns="http://www.w3.org/2000/svg">
<circle cx="624" cy="268" r="4" fill="#322C63"/>
<circle cx="603" cy="288" r="4" fill="#322C63"/>
<circle cx="645" cy="288" r="4" fill="#322C63"/>
<circle cx="666" cy="310" r="4" fill="#322C63"/>
<circle cx="624" cy="310" r="4" fill="#322C63"/>
<circle cx="603" cy="331" r="4" fill="#322C63"/>
<circle cx="582" cy="353" r="4" fill="#322C63"/>
<circle cx="624" cy="353" r="4" fill="#322C63"/>
<circle cx="666" cy="353" r="4" fill="#322C63"/>
<circle cx="708" cy="353" r="4" fill="#322C63"/>
<circle cx="645" cy="331" r="4" fill="#322C63"/>
<circle cx="687" cy="331" r="4" fill="#322C63"/>
<circle cx="582" cy="310" r="4" fill="#322C63"/>
<circle cx="562" cy="331" r="4" fill="#322C63"/>
<circle cx="541" cy="353" r="4" fill="#322C63"/>
<path d="M311 195.5C319.8 195.5 330.667 179.5 335 171.5C338.6 182.3 353.167 192 360 195.5C348 198.3 338.333 211.667 335 218C333.4 209.6 318.333 199.5 311 195.5Z" fill="#322C63"/>
<circle cx="667.5" cy="129.5" r="23.5" fill="#3B2C63"/>
<rect x="155" y="11" width="34" height="35" fill="#322C63"/>
<rect x="163" y="20" width="19" height="17" fill="#31255B"/>
<circle cx="537.5" cy="73.5" r="27.5" fill="#3B2C63"/>
<circle cx="537.5" cy="73.5" r="18.5" fill="#31255B"/>
<circle cx="1163.5" cy="241.5" r="27.5" fill="#3B2C63"/>
<circle cx="1163.5" cy="241.5" r="18.5" fill="#31255B"/>
<circle cx="12.5" cy="270.5" r="12.5" fill="#3B2B5C"/>
<circle cx="969" cy="187" r="4" fill="#3B2C63"/>
<circle cx="948" cy="165" r="4" fill="#3B2C63"/>
<circle cx="991" cy="165" r="4" fill="#3B2C63"/>
<circle cx="1010" cy="145" r="4" fill="#3B2C63"/>
<circle cx="969" cy="145" r="4" fill="#3B2C63"/>
<circle cx="928" cy="145" r="4" fill="#3B2C63"/>
<circle cx="905" cy="124" r="4" fill="#3B2C63"/>
<circle cx="948" cy="123" r="4" fill="#3B2C63"/>
<circle cx="991" cy="123" r="4" fill="#3B2C63"/>
<circle cx="1030" cy="123" r="4" fill="#3B2C63"/>
<circle cx="1051" cy="103" r="4" fill="#3B2C63"/>
<circle cx="1010" cy="103" r="4" fill="#3B2C63"/>
<circle cx="969" cy="103" r="4" fill="#3B2C63"/>
<circle cx="928" cy="103" r="4" fill="#3B2C63"/>
<circle cx="885" cy="103" r="4" fill="#3B2C63"/>
<circle cx="865" cy="82" r="4" fill="#3B2C63"/>
<circle cx="905" cy="82" r="4" fill="#3B2C63"/>
<circle cx="948" cy="82" r="4" fill="#3B2C63"/>
<circle cx="991" cy="82" r="4" fill="#3B2C63"/>
<circle cx="1030" cy="82" r="4" fill="#3B2C63"/>
<circle cx="1073" cy="82" r="4" fill="#3B2C63"/>
<circle cx="1051" cy="61" r="4" fill="#3B2C63"/>
<circle cx="1010" cy="61" r="4" fill="#3B2C63"/>
<circle cx="969" cy="61" r="4" fill="#3B2C63"/>
<circle cx="928" cy="61" r="4" fill="#3B2C63"/>
<circle cx="885" cy="61" r="4" fill="#3B2C63"/>
<circle cx="905" cy="40" r="4" fill="#3B2C63"/>
<circle cx="948" cy="40" r="4" fill="#3B2C63"/>
<circle cx="991" cy="40" r="4" fill="#3B2C63"/>
<circle cx="1030" cy="40" r="4" fill="#3B2C63"/>
<circle cx="1010" cy="19" r="4" fill="#3B2C63"/>
<circle cx="969" cy="19" r="4" fill="#3B2C63"/>
<circle cx="926" cy="19" r="4" fill="#3B2C63"/>
<path d="M686.5 16C692.9 15.6 699.5 5.5 702 0.5C704.8 8.5 713.5 14.1667 717.5 16C709.5 19.6 703.833 27.8333 702 31.5C700.8 24.3 691.167 18.1667 686.5 16Z" fill="#3B2C63"/>
</svg>
