<svg width="19" height="19" viewBox="0 0 19 19" fill="none" xmlns="http://www.w3.org/2000/svg">
<circle cx="9.5" cy="9.5" r="8.5" fill="#BB2026"/>
<path d="M7.25974 12.3343C7.10932 12.3343 6.95891 12.2789 6.84016 12.1602C6.61057 11.9306 6.61057 11.5506 6.84016 11.321L11.321 6.84016C11.5506 6.61057 11.9306 6.61057 12.1602 6.84016C12.3897 7.06974 12.3897 7.44974 12.1602 7.67932L7.67932 12.1602C7.56849 12.2789 7.41016 12.3343 7.25974 12.3343Z" fill="white"/>
<path d="M11.7406 12.3343C11.5902 12.3343 11.4397 12.2789 11.321 12.1602L6.84016 7.67932C6.61057 7.44974 6.61057 7.06974 6.84016 6.84016C7.06974 6.61057 7.44974 6.61057 7.67932 6.84016L12.1602 11.321C12.3897 11.5506 12.3897 11.9306 12.1602 12.1602C12.0414 12.2789 11.891 12.3343 11.7406 12.3343Z" fill="white"/>
</svg>
