<svg width="196" height="220" viewBox="0 0 196 220" fill="none" xmlns="http://www.w3.org/2000/svg">
<circle cx="88" cy="216" r="4" fill="#FB17AF" fill-opacity="0.48"/>
<circle cx="87.0195" cy="4" r="4" transform="rotate(180 87.0195 4)" fill="#FB17AF" fill-opacity="0.48"/>
<circle cx="67" cy="194" r="4" fill="#FB17AF" fill-opacity="0.48"/>
<circle cx="109.893" cy="24.0449" r="4" transform="rotate(180 109.893 24.0449)" fill="#FB17AF" fill-opacity="0.48"/>
<circle cx="110" cy="194" r="4" fill="#FB17AF" fill-opacity="0.48"/>
<circle cx="129" cy="174" r="4" fill="#FB17AF" fill-opacity="0.48"/>
<circle cx="88" cy="174" r="4" fill="#FB17AF" fill-opacity="0.48"/>
<circle cx="47" cy="174" r="4" fill="#FB17AF" fill-opacity="0.48"/>
<circle cx="24" cy="153" r="4" fill="#FB17AF" fill-opacity="0.48"/>
<circle cx="67" cy="152" r="4" fill="#FB17AF" fill-opacity="0.48"/>
<circle cx="110" cy="152" r="4" fill="#FB17AF" fill-opacity="0.48"/>
<circle cx="149" cy="152" r="4" fill="#FB17AF" fill-opacity="0.48"/>
<circle cx="170" cy="132" r="4" fill="#FB17AF" fill-opacity="0.48"/>
<circle cx="129" cy="132" r="4" fill="#FB17AF" fill-opacity="0.48"/>
<circle cx="88" cy="132" r="4" fill="#FB17AF" fill-opacity="0.48"/>
<circle cx="47" cy="132" r="4" fill="#FB17AF" fill-opacity="0.48"/>
<circle cx="4" cy="132" r="4" fill="#FB17AF" fill-opacity="0.48"/>
<circle cx="24" cy="111" r="4" fill="#FB17AF" fill-opacity="0.48"/>
<circle cx="67" cy="111" r="4" fill="#FB17AF" fill-opacity="0.48"/>
<circle cx="110" cy="111" r="4" fill="#FB17AF" fill-opacity="0.48"/>
<circle cx="149" cy="111" r="4" fill="#FB17AF" fill-opacity="0.48"/>
<circle cx="192" cy="111" r="4" fill="#FB17AF" fill-opacity="0.48"/>
<circle cx="170" cy="90" r="4" fill="#FB17AF" fill-opacity="0.48"/>
<circle cx="129" cy="90" r="4" fill="#FB17AF" fill-opacity="0.48"/>
<circle cx="88" cy="90" r="4" fill="#FB17AF" fill-opacity="0.48"/>
<circle cx="47" cy="90" r="4" fill="#FB17AF" fill-opacity="0.48"/>
<circle cx="110" cy="69" r="4" fill="#FB17AF" fill-opacity="0.48"/>
<circle cx="149" cy="69" r="4" fill="#FB17AF" fill-opacity="0.48"/>
<circle cx="129" cy="48" r="4" fill="#FB17AF" fill-opacity="0.48"/>
</svg>
