<svg width="1238" height="284" viewBox="0 0 1238 284" fill="none" xmlns="http://www.w3.org/2000/svg">
<g clip-path="url(#clip0_1239_1024)">
<rect width="1238" height="284" fill="white"/>
<rect width="146" height="284" rx="6" transform="matrix(-1 0 0 1 146 0)" fill="url(#paint0_linear_1239_1024)"/>
<rect x="1092" width="146" height="284" rx="10" fill="url(#paint1_linear_1239_1024)"/>
<path d="M30.7491 174.617C30.385 174.617 30.0208 174.483 29.7333 174.195L17.2366 161.699C15.205 159.667 15.205 156.332 17.2366 154.3L29.7333 141.804C30.2891 141.248 31.2091 141.248 31.765 141.804C32.3208 142.359 32.3208 143.279 31.765 143.835L19.2683 156.332C18.3483 157.252 18.3483 158.747 19.2683 159.667L31.765 172.164C32.3208 172.719 32.3208 173.639 31.765 174.195C31.4775 174.464 31.1133 174.617 30.7491 174.617Z" fill="white"/>
<path d="M1201.08 168.617C1200.71 168.617 1200.35 168.483 1200.06 168.195C1199.51 167.639 1199.51 166.719 1200.06 166.164L1212.56 153.667C1213.48 152.747 1213.48 151.252 1212.56 150.332L1200.06 137.835C1199.51 137.279 1199.51 136.359 1200.06 135.804C1200.62 135.248 1201.54 135.248 1202.09 135.804L1214.59 148.3C1215.57 149.278 1216.12 150.6 1216.12 151.999C1216.12 153.399 1215.59 154.721 1214.59 155.699L1202.09 168.195C1201.81 168.464 1201.44 168.617 1201.08 168.617Z" fill="white"/>
</g>
<defs>
<linearGradient id="paint0_linear_1239_1024" x1="2.23859e-07" y1="129.724" x2="145.922" y2="125.206" gradientUnits="userSpaceOnUse">
<stop stop-color="#D9D9D9" stop-opacity="0"/>
<stop offset="1" stop-color="#C44DAE"/>
</linearGradient>
<linearGradient id="paint1_linear_1239_1024" x1="1092" y1="129.724" x2="1237.92" y2="125.206" gradientUnits="userSpaceOnUse">
<stop stop-color="#D9D9D9" stop-opacity="0"/>
<stop offset="1" stop-color="#CB56B6"/>
</linearGradient>
<clipPath id="clip0_1239_1024">
<rect width="1238" height="284" fill="white"/>
</clipPath>
</defs>
</svg>
