<svg width="996" height="725" viewBox="0 0 996 725" fill="none" xmlns="http://www.w3.org/2000/svg">
<rect x="4.5" y="0.5" width="474.739" height="327.141" rx="30.5" stroke="white"/>
<line x1="226.715" y1="53.5312" x2="384.855" y2="53.5312" stroke="white"/>
<line x1="174" y1="288.105" x2="303.148" y2="288.105" stroke="white"/>
<circle cx="118" cy="167" r="80" fill="white"/>
<rect x="514.5" y="35.5" width="459" height="316" rx="30.5" stroke="white"/>
<line x1="729" y1="86.5" x2="882" y2="86.5" stroke="white"/>
<line x1="679" y1="312.5" x2="803" y2="312.5" stroke="white"/>
<circle cx="627" cy="193" r="80" fill="white"/>
<rect x="514.5" y="392.5" width="481" height="332" rx="30.5" stroke="white"/>
<line x1="740" y1="446.5" x2="900" y2="446.5" stroke="white"/>
<line x1="687" y1="684.5" x2="817" y2="684.5" stroke="white"/>
<circle cx="629" cy="556" r="80" fill="white"/>
<rect x="0.5" y="365.5" width="483" height="332" rx="30.5" stroke="white"/>
<line x1="227" y1="418.5" x2="387" y2="418.5" stroke="white"/>
<line x1="173" y1="657.5" x2="304" y2="657.5" stroke="white"/>
<circle cx="115" cy="528" r="80" fill="white"/>
</svg>
