<svg width="126" height="104" viewBox="0 0 126 104" fill="none" xmlns="http://www.w3.org/2000/svg">
<path d="M82 0L83.0027 41.2682C83.0187 41.9271 83.6567 42.3906 84.2882 42.2022L123.846 30.4033L84.908 44.1095C84.2863 44.3283 84.0426 45.0782 84.4169 45.6207L107.863 79.5967L82.7945 46.7995C82.3943 46.2758 81.6057 46.2758 81.2055 46.7995L56.1374 79.5967L79.5831 45.6207C79.9574 45.0782 79.7137 44.3283 79.092 44.1095L40.1535 30.4033L79.7118 42.2022C80.3433 42.3906 80.9813 41.9271 80.9973 41.2682L82 0Z" fill="#432E8D"/>
<path d="M30 44L30.6736 71.7212C30.6896 72.3801 31.3275 72.8436 31.9591 72.6552L58.5317 64.7295L32.3754 73.9364C31.7537 74.1553 31.51 74.9052 31.8843 75.4476L47.6336 98.2705L30.7945 76.2395C30.3943 75.7158 29.6057 75.7158 29.2055 76.2395L12.3664 98.2705L28.1157 75.4477C28.49 74.9052 28.2463 74.1553 27.6246 73.9364L1.4683 64.7295L28.0409 72.6552C28.6725 72.8436 29.3104 72.3801 29.3264 71.7212L30 44Z" fill="#432E8D"/>
<path d="M32 10L32.8229 22.8674L45.3148 19.6738L33.3315 24.4326L40.229 35.3262L32 25.4L23.771 35.3262L30.6685 24.4326L18.6852 19.6738L31.1771 22.8674L32 10Z" fill="#432E8D"/>
</svg>
