<svg width="112" height="106" viewBox="0 0 112 106" fill="none" xmlns="http://www.w3.org/2000/svg">
<path d="M29.3112 24.5306L45.5432 49.6451C45.8923 50.1853 46.6532 50.2602 47.1009 49.7985L67.9184 28.3311L49.049 51.5294C48.6432 52.0284 48.807 52.7752 49.3845 53.0583L76.2342 66.2231L48.3403 55.446C47.7404 55.2142 47.0808 55.6008 46.9899 56.2375L42.7665 85.8412L44.3965 55.9822C44.4315 55.34 43.86 54.8322 43.2264 54.9425L13.7664 60.0738L42.6677 52.3971C43.2893 52.232 43.5957 51.5315 43.2949 50.963L29.3112 24.5306Z" fill="#AC279C"/>
<path d="M85.5 0L86.5356 23.7432C86.5636 24.3857 87.1821 24.8351 87.8019 24.6632L110.703 18.3111L88.4419 26.633C87.8395 26.8582 87.6032 27.5853 87.9582 28.1216L101.076 47.9389L86.2826 29.339C85.8823 28.8356 85.1177 28.8356 84.7174 29.339L69.9237 47.9389L83.0418 28.1216C83.3968 27.5853 83.1605 26.8582 82.5581 26.633L60.297 18.3111L83.1981 24.6632C83.8179 24.8351 84.4364 24.3857 84.4644 23.7432L85.5 0Z" fill="#AC279C"/>
<path d="M85.5 53L86.5356 76.7432C86.5636 77.3857 87.1821 77.8351 87.8019 77.6632L110.703 71.3111L88.4419 79.633C87.8395 79.8582 87.6032 80.5853 87.9582 81.1216L101.076 100.939L86.2826 82.339C85.8823 81.8356 85.1177 81.8356 84.7174 82.339L69.9237 100.939L83.0418 81.1216C83.3968 80.5853 83.1605 79.8582 82.5581 79.633L60.297 71.3111L83.1981 77.6632C83.8179 77.8351 84.4364 77.3857 84.4644 76.7432L85.5 53Z" fill="#AC279C"/>
</svg>
